<svg width="183" height="88" viewBox="0 0 183 88" fill="none" xmlns="http://www.w3.org/2000/svg">
<path d="M90.0316 39.9216C79.0248 39.9216 70.0698 30.9666 70.0698 19.9608C70.0698 8.955 79.0248 0 90.0316 0C101.037 0 109.992 8.955 109.992 19.9608C109.992 30.9666 101.037 39.9216 90.0316 39.9216ZM90.0316 1.11628C79.6402 1.11628 71.186 9.56942 71.186 19.9608C71.186 30.3522 79.6402 38.8043 90.0316 38.8043C100.423 38.8043 108.876 30.3522 108.876 19.9608C108.876 9.56942 100.422 1.11628 90.0316 1.11628Z" fill="#1D1D1B"/>
<path d="M94.4885 39.363C94.4885 41.8248 92.4924 43.8208 90.0316 43.8208C87.5688 43.8208 85.5737 41.8248 85.5737 39.363C85.5737 36.9001 87.5698 34.9051 90.0316 34.9051C92.4934 34.9051 94.4885 36.9001 94.4885 39.363Z" fill="#D01317"/>
<path d="M17.9888 68.6355C18.289 69.0806 18.4533 69.3436 19 69.3436V70H11.455V69.3446C11.9743 69.3446 12.4662 68.8712 12.3029 68.3726L7.70828 61.3641L5.74066 63.6743V68.2926C5.74066 68.8196 6.28734 69.3436 6.83402 69.3436V70H0V69.3446C0.546679 69.3446 1.09231 68.8196 1.09231 68.2937V50.7043C1.09231 50.1804 0.546679 49.6544 0 49.6544V49H6.83402V49.6544C6.28734 49.6544 5.74066 50.1814 5.74066 50.7043V61.8628L15.2544 50.6254C15.6378 50.1268 15.09 49.6544 14.5718 49.6544V49H18.1521V49.6544C17.6064 49.6544 17.4411 49.9174 17.0587 50.3645L10.7988 57.7138L17.9888 68.6355Z" fill="#1D1D1B"/>
<path d="M47.8813 68.2917C48.0775 68.7388 48.4407 69.3426 49 69.3426V69.999H43.2936L41.0282 64.5394L40.748 63.8567C40.5249 63.3317 40.1327 62.8068 39.5733 62.8068H34.4284C33.924 62.8068 33.5328 63.2529 33.3087 63.7262L33.0845 64.2501L32.9724 64.5394L30.6791 70H29V69.3436C29.5604 69.3436 29.9236 68.7671 30.1197 68.2927L38.0904 49H39.8244L47.8813 68.2917ZM39.5733 62.1504C39.9645 62.1504 39.9365 61.8864 39.7986 61.5992L39.7695 61.494L39.6585 61.231L39.3772 60.5483L37.0289 54.8783L34.9306 59.8656L34.3713 61.232C34.2042 61.6518 33.896 62.1504 34.4553 62.1504H39.5733Z" fill="#1D1D1B"/>
<path d="M76 70H72.3344H70.5288H59V69.3437C59.5565 69.3437 60.1109 68.8178 60.1109 68.2929V50.7061C60.1109 50.1802 59.5565 49.6563 59 49.6563V49H65.9449V49.6563C65.3894 49.6563 64.834 50.1812 64.834 50.7061V68.2929C64.834 68.8188 65.3894 69.3437 65.9449 69.3437H70.5288C73.5288 69.3437 74.6943 67.2421 74.6943 65.2478H76V70Z" fill="#1D1D1B"/>
<path d="M92.0401 68.2946C92.0401 68.8206 92.521 69.3455 93 69.3455V70H87V69.3455C87.48 69.3455 87.9599 68.8196 87.9599 68.2946V50.7044C87.9599 50.1804 87.479 49.6544 87 49.6544V49H93V49.6544C92.52 49.6544 92.0401 50.1814 92.0401 50.7044V68.2946Z" fill="#1D1D1B"/>
<path d="M123 49.6564C122.469 49.6564 121.94 50.1823 121.94 50.7063V70H119.263L106.331 52.098V68.2948C106.331 68.8197 106.862 69.3456 107.391 69.3456V70H104V69.3446C104.531 69.3446 105.059 68.8177 105.059 68.2937V50.3381C104.769 49.8911 104.53 49.6554 104.027 49.6554V49H109.432L120.668 64.5404V50.7063C120.668 50.1813 120.137 49.6564 119.608 49.6564V49.001H123V49.6564Z" fill="#1D1D1B"/>
<path d="M151.989 68.6355C152.289 69.0806 152.453 69.3436 153 69.3436V70H145.455V69.3446C145.974 69.3446 146.466 68.8712 146.303 68.3726L141.709 61.3641L139.742 63.6743V68.2926C139.742 68.8196 140.288 69.3436 140.835 69.3436V70H134V69.3446C134.548 69.3446 135.093 68.8196 135.093 68.2937V50.7043C135.093 50.1804 134.547 49.6544 134 49.6544V49H140.835V49.6544C140.287 49.6544 139.742 50.1814 139.742 50.7043V61.8628L149.255 50.6254C149.638 50.1268 149.091 49.6544 148.573 49.6544V49H152.153V49.6544C151.606 49.6544 151.441 49.9174 151.06 50.3645L144.799 57.7138L151.989 68.6355Z" fill="#1D1D1B"/>
<path d="M181.881 68.2917C182.077 68.7388 182.442 69.3426 183 69.3426V69.999H177.296L175.029 64.5384L174.749 63.8557C174.525 63.3307 174.134 62.8058 173.574 62.8058H168.427C167.924 62.8058 167.533 63.2518 167.309 63.7252L167.086 64.2491L166.973 64.5394L164.68 70H163V69.3436C163.561 69.3436 163.924 68.7671 164.12 68.2927L172.092 49H173.826L181.881 68.2917ZM173.575 62.1504C173.967 62.1504 173.939 61.8864 173.799 61.5992L173.772 61.494L173.66 61.231L173.38 60.5483L171.03 54.8783L168.933 59.8656L168.372 61.232C168.205 61.6518 167.897 62.1504 168.456 62.1504H173.575Z" fill="#1D1D1B"/>
<path d="M37.6733 88H37V81H37.6733L40.0051 84.389L42.3368 81H43V88H42.3287V82.1204L40.217 85.179H39.8034L37.6733 82.1204V88Z" fill="#1D1D1B"/>
<path d="M47.8522 82.0031C48.4256 81.3344 49.1412 81 49.9991 81C50.8522 81 51.564 81.3344 52.1384 82.0031C52.7119 82.675 53 83.5071 53 84.4973C53 85.4982 52.7119 86.3325 52.1384 87.0023C51.5706 87.6667 50.8559 88 49.9991 88C49.1356 88 48.419 87.6667 47.8522 87.0023C47.2834 86.34 47 85.5057 47 84.4973C47 83.4996 47.2834 82.6686 47.8522 82.0031ZM48.3211 86.5195C48.7702 87.061 49.3286 87.3324 49.9991 87.3324C50.6695 87.3324 51.2298 87.061 51.678 86.5195C52.1328 85.9704 52.3597 85.2964 52.3597 84.4963C52.3597 83.6983 52.1328 83.0243 51.678 82.4773C51.2298 81.9358 50.6695 81.6644 49.9991 81.6644C49.3286 81.6644 48.7702 81.9358 48.3211 82.4773C47.8663 83.0243 47.6384 83.6983 47.6384 84.4963C47.6384 85.2974 47.8663 85.9715 48.3211 86.5195Z" fill="#1D1D1B"/>
<path d="M59.883 88H58V81H59.883C60.8162 81 61.5669 81.3238 62.1367 81.9691C62.7128 82.6232 63 83.4663 63 84.4994C63 85.5403 62.7128 86.3845 62.1367 87.0309C61.5669 87.6773 60.8162 88 59.883 88ZM58.6089 81.6696V87.3304H59.8093C60.5991 87.3304 61.227 87.074 61.6941 86.5602C62.1539 86.0541 62.3839 85.3669 62.3839 84.4994C62.3839 83.6331 62.1539 82.9459 61.6941 82.4398C61.227 81.926 60.5991 81.6707 59.8093 81.6707H58.6089V81.6696Z" fill="#1D1D1B"/>
<path d="M72 88H67V81H71.8482V81.6685H67.7468V83.9105H71.1114V84.579H67.7468V87.3304H72V88Z" fill="#1D1D1B"/>
<path d="M76.6214 88H76V81H78.6305C79.2017 81 79.655 81.1713 79.9876 81.5138C80.321 81.8597 80.4882 82.3193 80.4882 82.8994C80.4882 83.4 80.3665 83.8166 80.1222 84.1492C79.8779 84.484 79.538 84.6928 79.1005 84.779L81 88H80.269L78.4206 84.8497H76.6205V88H76.6214ZM76.6214 81.6696V84.179H78.5971C79.0002 84.179 79.3132 84.0707 79.5343 83.8552C79.7553 83.6376 79.8659 83.3304 79.8659 82.9304C79.8659 82.5293 79.7544 82.2188 79.5296 82C79.3067 81.7801 78.9946 81.6696 78.5971 81.6696H76.6214Z" fill="#1D1D1B"/>
<path d="M85.7467 88H85V81H85.6641L90.2522 86.7204V81H91V88H90.3451L85.7467 82.2608V88Z" fill="#1D1D1B"/>
<path d="M101.495 88C101.007 88 100.54 87.9327 100.093 87.7992C99.6471 87.6679 99.282 87.4949 99 87.2845V86.4804C99.2703 86.7143 99.6194 86.9118 100.049 87.0816C100.513 87.2482 100.977 87.3326 101.447 87.3326C101.98 87.3326 102.417 87.2162 102.756 86.9844C103.096 86.7516 103.267 86.442 103.267 86.0564C103.305 85.6955 103.118 85.3901 102.709 85.137C102.625 85.074 102.49 85.0088 102.304 84.9448L101.881 84.7995C101.86 84.7921 101.822 84.7803 101.765 84.7664C101.706 84.7494 101.646 84.7301 101.578 84.7077C101.511 84.6853 101.44 84.6639 101.37 84.6436C100.972 84.5283 100.735 84.4567 100.657 84.4301C100.452 84.3617 100.253 84.2805 100.06 84.1898C99.8482 84.0873 99.6822 83.973 99.5587 83.8513C99.2757 83.5565 99.1352 83.1892 99.1352 82.7503C99.1352 82.2398 99.3406 81.8233 99.7524 81.4934C100.162 81.1655 100.735 81 101.466 81C102.275 81 102.975 81.1879 103.566 81.5606V82.2943C102.897 81.8767 102.205 81.6664 101.485 81.6664C100.965 81.6664 100.563 81.7721 100.281 81.9761C99.9983 82.1832 99.8578 82.447 99.8578 82.7695C99.8206 83.0268 99.9642 83.2821 100.292 83.532C100.342 83.5768 100.447 83.6291 100.609 83.6879L100.937 83.8128L101.351 83.9271L101.756 84.0445C102.109 84.1535 102.33 84.225 102.422 84.256C102.607 84.3211 102.802 84.4076 103.008 84.5166C103.221 84.6276 103.393 84.7483 103.529 84.8839C103.844 85.1733 104 85.5609 104 86.0447C104 86.6491 103.756 87.1275 103.268 87.4746C102.785 87.8259 102.194 88 101.495 88Z" fill="#1D1D1B"/>
<path d="M110.381 88H109.587V81.6685H107V81H113V81.6685H110.381V88Z" fill="#1D1D1B"/>
<path d="M116.852 82.0031C117.426 81.3344 118.143 81 119.001 81C119.853 81 120.566 81.3344 121.14 82.0031C121.714 82.675 122 83.5071 122 84.4973C122 85.4982 121.714 86.3325 121.14 87.0023C120.571 87.6667 119.858 88 119.001 88C118.136 88 117.42 87.6667 116.852 87.0023C116.284 86.34 116 85.5057 116 84.4973C116 83.4996 116.285 82.6686 116.852 82.0031ZM117.321 86.5195C117.772 87.061 118.329 87.3324 119.001 87.3324C119.672 87.3324 120.231 87.061 120.679 86.5195C121.133 85.9704 121.362 85.2964 121.362 84.4963C121.362 83.6983 121.134 83.0243 120.679 82.4773C120.23 81.9358 119.672 81.6644 119.001 81.6644C118.329 81.6644 117.771 81.9358 117.321 82.4773C116.867 83.0243 116.64 83.6983 116.64 84.4963C116.64 85.2974 116.867 85.9715 117.321 86.5195Z" fill="#1D1D1B"/>
<path d="M126.748 88H126V81H129.157C129.843 81 130.386 81.1713 130.786 81.5138C131.184 81.8597 131.385 82.3193 131.385 82.8994C131.385 83.4 131.239 83.8166 130.946 84.1492C130.654 84.484 130.244 84.6928 129.72 84.779L132 88H131.122L128.905 84.8497H126.747V88H126.748ZM126.748 81.6696V84.179H129.116C129.601 84.179 129.975 84.0707 130.241 83.8552C130.507 83.6376 130.64 83.3304 130.64 82.9304C130.64 82.5293 130.504 82.2188 130.236 82C129.967 81.7801 129.593 81.6696 129.116 81.6696H126.748Z" fill="#1D1D1B"/>
<path d="M137.8 88H137.2V84.7912L135 81H135.697L137.509 84.1006L139.322 81H140L137.8 84.7801V88Z" fill="#1D1D1B"/>
</svg>
