<svg width="30" height="30" viewBox="0 0 30 30" fill="none" xmlns="http://www.w3.org/2000/svg">
<g clip-path="url(#clip0)">
<path d="M23.8477 17.6953H17.6367V17.0423C19.7135 16.0531 21.1523 13.9337 21.1523 11.4844V4.39406C21.1525 2.94059 19.9699 1.75775 18.5163 1.75729C18.0914 1.75717 17.809 1.75699 17.6162 1.75676C16.7914 0.661992 15.4944 0 14.1211 0H13.2422C10.819 0 8.84766 1.97139 8.84766 4.39453V11.4844C8.84766 13.9337 10.2865 16.0531 12.3633 17.0423V17.6953H6.15234C2.75994 17.6953 0 20.4553 0 23.8477V29.1211C0 29.6065 0.393516 30 0.878906 30H29.1211C29.6065 30 30 29.6065 30 29.1211V23.8477C30 20.4553 27.2401 17.6953 23.8477 17.6953ZM12.3633 19.4531H12.5145C12.8773 20.4761 13.8542 21.2109 15 21.2109C16.1458 21.2109 17.1227 20.4761 17.4855 19.4531H17.6367V28.2422H12.3633V19.4531ZM10.6055 26.2183L9.02508 23.8477L10.6055 21.477V26.2183ZM19.3945 21.477L20.9749 23.8477L19.3945 26.2183V21.477ZM10.6055 4.39453C10.6055 2.94064 11.7883 1.75781 13.2422 1.75781H14.1211C15.0586 1.75781 15.9054 2.25076 16.3864 3.07646C16.5422 3.34412 16.8275 3.50994 17.1373 3.51293C17.2536 3.51404 17.3678 3.51469 18.5156 3.51504C19.0003 3.51521 19.3945 3.90943 19.3945 4.39395V6.8782C18.9806 6.72826 18.606 6.47098 18.2984 6.11912C18.1315 5.92816 17.8903 5.81865 17.6367 5.81865C17.3831 5.81865 17.1418 5.92822 16.9749 6.11912C16.4609 6.70734 15.7595 7.03125 15 7.03125H10.6055V4.39453ZM10.6055 11.4844V8.78906H15C15.9551 8.78906 16.8792 8.47008 17.6367 7.89428C18.1584 8.29084 18.7591 8.56553 19.3945 8.69812V11.4844C19.3945 13.9075 17.4231 15.8789 15 15.8789C12.5769 15.8789 10.6055 13.9075 10.6055 11.4844ZM15 17.6367C15.2984 17.6367 15.5917 17.6149 15.8789 17.5737V18.5742C15.8789 19.0588 15.4846 19.4531 15 19.4531C14.5154 19.4531 14.1211 19.0588 14.1211 18.5742V17.5737C14.4083 17.6149 14.7016 17.6367 15 17.6367ZM7.23803 24.336L9.84211 28.2422H1.75781V23.8477C1.75781 21.4245 3.7292 19.4531 6.15234 19.4531H9.84211L7.23803 23.3593C7.19555 23.4195 7.08381 23.5945 7.08299 23.8448C7.08211 24.0987 7.19572 24.2761 7.23803 24.336ZM22.762 23.3593L20.1579 19.4531H23.8477C26.2708 19.4531 28.2422 21.4245 28.2422 23.8477V28.2422H20.1579L22.762 24.336C22.8062 24.272 22.908 24.1061 22.9144 23.8708C22.9215 23.6079 22.8048 23.4214 22.762 23.3593Z" fill="#000100"/>
</g>
<defs>
<clipPath id="clip0">
<rect width="30" height="30" fill="white"/>
</clipPath>
</defs>
</svg>
