<svg width="30" height="30" viewBox="0 0 30 30" fill="none" xmlns="http://www.w3.org/2000/svg">
<path fill-rule="evenodd" clip-rule="evenodd" d="M2.63672 0H27.3633C28.8172 0 30 1.18283 30 2.63672V27.3633C30 28.8172 28.8172 30 27.3633 30H2.63672C1.18283 30 0 28.8172 0 27.3633V2.63672C0 1.18283 1.18283 0 2.63672 0ZM28.2422 2.63672C28.2422 2.15209 27.8479 1.75781 27.3633 1.75781H2.63672C2.15209 1.75781 1.75781 2.15209 1.75781 2.63672V27.3633C1.75781 27.8479 2.15209 28.2422 2.63672 28.2422H27.3633C27.8479 28.2422 28.2422 27.8479 28.2422 27.3633V2.63672Z" fill="#000100"/>
<path d="M6.87891 8.84766H23.1523C23.6377 8.84766 24.0312 8.45414 24.0312 7.96875C24.0312 7.48336 23.6377 7.08984 23.1523 7.08984H6.87891C6.39352 7.08984 6 7.48336 6 7.96875C6 8.45414 6.39352 8.84766 6.87891 8.84766Z" fill="#000100"/>
<path d="M6.87891 12.7578H23.1523C23.6377 12.7578 24.0312 12.3643 24.0312 11.8789C24.0312 11.3935 23.6377 11 23.1523 11H6.87891C6.39352 11 6 11.3935 6 11.8789C6 12.3643 6.39352 12.7578 6.87891 12.7578Z" fill="#000100"/>
<path d="M6.87891 16.7578H23.1523C23.6377 16.7578 24.0312 16.3643 24.0312 15.8789C24.0312 15.3935 23.6377 15 23.1523 15H6.87891C6.39352 15 6 15.3935 6 15.8789C6 16.3643 6.39352 16.7578 6.87891 16.7578Z" fill="#000100"/>
<path d="M6.87891 20.7578H23.1523C23.6377 20.7578 24.0312 20.3643 24.0312 19.8789C24.0312 19.3935 23.6377 19 23.1523 19H6.87891C6.39352 19 6 19.3935 6 19.8789C6 20.3643 6.39352 20.7578 6.87891 20.7578Z" fill="#000100"/>
</svg>
