<svg xmlns="http://www.w3.org/2000/svg">
    <defs>
        <symbol viewBox="0 0 25 25" id="icon-bag">
            <rect x="3.5" y="5.5" width="18" height="19" style="fill: #fff;" />
            <path d="M17.5 5.5H7.5C7.5 2.73858 9.73858 0.5 12.5 0.5C15.2614 0.5 17.5 2.73858 17.5 5.5Z" />
            <rect class="icon-cust-elem" x="3" y="3" width="19" height="1"  fill="#000100" stroke="none"/>
            <rect x="21" y="4" width="1" height="1" />
            <rect x="3" y="4" width="1" height="1" />
        </symbol>

        <symbol viewBox="0 0 25 23" id="icon-heart">
            <path d="M12.1412 3.1088L12.5 3.47852L12.8588 3.1088L13.5039 2.44408C16.0195 -0.148026 20.0916 -0.148026 22.6072 2.44408C25.1309 5.04458 25.1309 9.26685 22.6072 11.8674L12.5 22.2821L2.39279 11.8674C-0.13093 9.26685 -0.13093 5.04458 2.39279 2.44408C4.90836 -0.148026 8.98053 -0.148026 11.4961 2.44408L12.1412 3.1088Z"  stroke-linecap="round"/>
        </symbol>

        <symbol viewBox="0 0 25 25" id="icon-login">
            <g clip-path="url(#clip0)">
                <circle cx="12.5" cy="6.5" r="6" />
                <circle cx="12.5" cy="27.5" r="12" />
            </g>
            <defs>
                <clipPath id="clip0">
                    <rect width="25" height="25" style="fill: #fff;"/>
                </clipPath>
            </defs>
        </symbol>

        <symbol viewBox="0 0 165 36" id="logo">
            <path d="M16.018 18.3385C16.2853 18.7557 16.4316 19.0011 16.9184 19.0011V19.6132H10.2001V19.0011C10.6615 19.0011 11.1005 18.559 10.9548 18.093L6.8646 11.5473L5.11157 13.7053V18.0193C5.11157 18.5102 5.59895 19.0011 6.08574 19.0011V19.6132H0V19.0011C0.486198 19.0011 0.973573 18.5102 0.973573 18.0193V1.59273C0.973573 1.10303 0.486198 0.612732 0 0.612732V0H6.08574V0.612732C5.59836 0.612732 5.11157 1.10303 5.11157 1.59273V12.0127L13.5835 1.51904C13.9245 1.05311 13.4365 0.612732 12.9751 0.612732V0H16.1631V0.612732C15.6769 0.612732 15.53 0.857576 15.1896 1.27478L9.61539 8.13901L16.018 18.3385Z" />
            <path d="M42.8398 18.0193C43.0098 18.4365 43.3272 19.0011 43.814 19.0011V19.6132H38.8482L36.8756 14.5135L36.6325 13.8764C36.4372 13.3855 36.0968 12.8964 35.6094 12.8964H31.1309C30.6931 12.8964 30.3521 13.3118 30.1574 13.754L29.9621 14.2437L29.8647 14.5135L27.8692 19.6132H26.4082V19.0011C26.8956 19.0011 27.2113 18.4615 27.3818 18.0193L34.319 0H35.8283L42.8398 18.0193ZM35.61 12.2831C35.9516 12.2831 35.9268 12.0377 35.8065 11.7684L35.7805 11.6704L35.6832 11.4249L35.4395 10.7878L33.3955 5.49197L31.5693 10.1507L31.0831 11.4255C30.9374 11.8178 30.6701 12.2837 31.1563 12.2837H35.61V12.2831Z" />
            <path d="M68.4454 19.6138H65.2325H63.65H53.5479V19.0017C54.0352 19.0017 54.5214 18.5108 54.5214 18.0205V1.59333C54.5214 1.10362 54.0352 0.613313 53.5479 0.613313V0.000598907H59.633V0.613313C59.1468 0.613313 58.6606 1.10362 58.6606 1.59333V18.0205C58.6606 18.5108 59.1468 19.0017 59.633 19.0017H63.6506C66.2793 19.0017 67.3018 17.0393 67.3018 15.1756H68.4454V19.6138Z" />
            <path d="M83.2915 18.0193C83.2915 18.5102 83.7783 19.0011 84.2645 19.0011V19.6132H78.1787V19.0011C78.6661 19.0011 79.1535 18.5102 79.1535 18.0193V1.59273C79.1535 1.10303 78.6661 0.612732 78.1787 0.612732V0H84.2645V0.612732C83.7783 0.612732 83.2915 1.10303 83.2915 1.59273V18.0193Z" />
            <path d="M111.455 0.612732C110.967 0.612732 110.48 1.10303 110.48 1.59273V19.6132H108.022L96.1428 2.89189V18.0187C96.1428 18.5096 96.6302 19.0005 97.1164 19.0005V19.6127H94.001V19.0005C94.4872 19.0005 94.974 18.5096 94.974 18.0187V1.24982C94.7067 0.83262 94.4872 0.612732 94.0258 0.612732V0H98.9916L109.312 14.5141V1.59333C109.312 1.10362 108.825 0.613312 108.339 0.613312V0.000598513H111.455V0.612732Z" />
            <path d="M137.204 18.3385C137.472 18.7557 137.618 19.0011 138.105 19.0011V19.6132H131.386V19.0011C131.849 19.0011 132.287 18.559 132.141 18.093L128.051 11.5473L126.299 13.7053V18.0193C126.299 18.5102 126.785 19.0011 127.271 19.0011V19.6132H121.186V19.0011C121.673 19.0011 122.16 18.5102 122.16 18.0193V1.59273C122.16 1.10303 121.673 0.612732 121.186 0.612732V0H127.272V0.612732C126.786 0.612732 126.3 1.10303 126.3 1.59273V12.0127L134.769 1.51904C135.111 1.05311 134.624 0.612732 134.162 0.612732V0H137.351V0.612732C136.864 0.612732 136.718 0.857576 136.377 1.27478L130.803 8.13901L137.204 18.3385Z" />
            <path d="M164.027 18.0193C164.197 18.4365 164.515 19.0011 165 19.0011V19.6132H160.036L158.064 14.5135L157.82 13.8764C157.625 13.3855 157.284 12.8964 156.799 12.8964H152.319C151.881 12.8964 151.541 13.3118 151.345 13.754L151.151 14.2437L151.053 14.5135L149.057 19.6132H147.596V19.0011C148.082 19.0011 148.399 18.4615 148.57 18.0193L155.508 0H157.017L164.027 18.0193ZM156.799 12.2831C157.139 12.2831 157.114 12.0377 156.992 11.7684L156.969 11.6704L156.871 11.4249L156.628 10.7878L154.582 5.49197L152.757 10.1507L152.27 11.4255C152.125 11.8178 151.856 12.2837 152.343 12.2837H156.799V12.2831Z" />
            <path d="M33.9585 35.3689V29.3896H34.5774L36.7223 32.285L38.8689 29.3896H39.4784V35.3689H38.8594V30.3458L36.9176 32.9601H36.5358L34.5774 30.3458V35.3689H33.9585Z" />
            <path d="M46.1008 29.2879C46.9575 29.2879 47.662 29.5863 48.2291 30.1752C48.7973 30.7648 49.0858 31.4993 49.0858 32.3789C49.0858 33.2585 48.7979 34.002 48.2291 34.5915C47.6614 35.1811 46.9575 35.4711 46.1008 35.4711C45.244 35.4711 44.5318 35.1811 43.9636 34.5915C43.3966 34.0026 43.1157 33.2591 43.1157 32.3789C43.1157 31.4988 43.396 30.7648 43.9636 30.1752C44.5324 29.5863 45.244 29.2879 46.1008 29.2879ZM46.1008 34.8821C46.7628 34.8821 47.3222 34.6426 47.7718 34.1648C48.2214 33.6858 48.4503 33.0879 48.4503 32.3789C48.4503 31.6699 48.2214 31.072 47.7718 30.5942C47.3222 30.1152 46.7628 29.8757 46.1008 29.8757C45.4393 29.8757 44.88 30.1152 44.4303 30.5942C43.9807 31.072 43.7518 31.6699 43.7518 32.3789C43.7518 33.0879 43.9807 33.6858 44.4303 34.1648C44.88 34.6426 45.4393 34.8821 46.1008 34.8821Z" />
            <path d="M52.7407 35.3689V29.3896H54.6832C55.642 29.3896 56.4138 29.6629 57.0067 30.2186C57.6009 30.7737 57.8971 31.4916 57.8971 32.3795C57.8971 33.268 57.6009 33.9853 57.0067 34.5404C56.4138 35.0961 55.642 35.3695 54.6832 35.3695H52.7407V35.3689ZM53.3685 34.7965H54.6064C55.4296 34.7965 56.0733 34.5749 56.5489 34.1392C57.0233 33.7036 57.2611 33.1147 57.2611 32.3795C57.2611 31.6455 57.0233 31.0554 56.5489 30.6198C56.0733 30.1853 55.4296 29.9625 54.6064 29.9625H53.3685V34.7965Z" />
            <path d="M61.5513 35.3689V29.3896H65.622V29.9619H62.1791V31.8755H65.003V32.4485H62.1791V34.7965H65.75V35.3689H61.5513Z" />
            <path d="M69.1899 35.3689V29.3896H71.8446C73.007 29.3896 73.7191 30.0296 73.7191 31.012C73.7191 31.8583 73.2017 32.4728 72.3195 32.6184L74.236 35.3683H73.4979L71.6321 32.6784H69.8177V35.3683H69.1899V35.3689ZM69.8183 32.1055H71.8109C72.6252 32.1055 73.0913 31.7216 73.0913 31.0382C73.0913 30.3547 72.6169 29.9613 71.8109 29.9613H69.8183V32.1055Z" />
            <path d="M77.644 35.3689V29.3896H78.1869L81.9355 34.2754V29.3896H82.5461V35.3689H82.0116L78.2547 30.4659V35.3689H77.644Z" />
            <path d="M90.3418 35.0866V34.4293C90.6728 34.7288 91.0888 34.8827 91.5886 34.8827C92.4955 34.8827 92.9539 34.4037 92.9539 33.4386V29.3896H93.5812V33.5491C93.5812 34.8483 92.8778 35.4711 91.6983 35.4711C91.1484 35.4711 90.6905 35.3427 90.3418 35.0866Z" />
            <path d="M97.3867 35.3689V29.3896H101.457V29.9619H98.0145V31.8755H100.838V32.4485H98.0145V34.7965H101.585V35.3689H97.3867Z" />
            <path d="M106.568 35.4027L104.517 29.3896H105.212L106.866 34.3692L108.401 29.3646H108.909L110.452 34.3692L112.098 29.3896H112.777L110.732 35.4027H110.181L108.654 30.4659L107.12 35.4027H106.568Z" />
            <path d="M116.171 35.3689V29.3896H120.241V29.9619H116.798V31.8755H119.622V32.4485H116.798V34.7965H120.368V35.3689H116.171Z" />
            <path d="M123.81 35.3689V29.3896H124.437V34.7965H127.752V35.3689H123.81Z" />
            <path d="M130.651 34.8394V34.1298C130.88 34.3265 131.185 34.5059 131.575 34.6599C131.974 34.8055 132.381 34.8827 132.805 34.8827C133.729 34.8827 134.407 34.4465 134.407 33.7553C134.45 33.3791 134.17 33.0974 133.916 32.9435C133.848 32.893 133.729 32.8324 133.56 32.7729L133.186 32.6452C133.102 32.6196 132.949 32.5685 132.737 32.5091C132.474 32.4312 132.262 32.3724 132.109 32.3207C131.957 32.2696 131.778 32.2012 131.583 32.1073C131.388 32.0134 131.243 31.9112 131.142 31.8084C130.938 31.595 130.769 31.2533 130.769 30.8343C130.769 30.3821 130.948 30.0142 131.312 29.7242C131.676 29.4341 132.177 29.2897 132.822 29.2897C133.526 29.2897 134.145 29.4508 134.671 29.7842V30.4338C134.086 30.0665 133.475 29.8781 132.839 29.8781C131.889 29.8781 131.406 30.3048 131.406 30.8516C131.363 31.1511 131.6 31.3817 131.787 31.5273C131.839 31.5701 131.931 31.6123 132.068 31.6634L132.356 31.7745L132.72 31.8773L133.076 31.9802C133.322 32.0574 133.517 32.1162 133.661 32.1674C133.805 32.2185 133.983 32.2963 134.178 32.3979C134.373 32.5008 134.526 32.6113 134.636 32.7236C134.866 32.9364 135.051 33.312 135.051 33.7482C135.051 34.2866 134.84 34.7044 134.407 35.0123C133.983 35.3201 133.466 35.4735 132.846 35.4735C131.965 35.4711 131.134 35.206 130.651 34.8394Z" />
        </symbol>




    </defs>
</svg>
